<svg width="98" height="39" viewBox="0 0 98 39" fill="none" xmlns="http://www.w3.org/2000/svg">
<path d="M1.445 39C1.04167 39 0.711667 38.8717 0.455 38.615C0.198333 38.3583 0.0700001 38.0283 0.0700001 37.625V1.875C0.0700001 1.47166 0.198333 1.14166 0.455 0.884999C0.711667 0.628331 1.04167 0.499997 1.445 0.499997H26.36C26.7633 0.499997 27.0933 0.628331 27.35 0.884999C27.6067 1.14166 27.735 1.47166 27.735 1.875V6.275C27.735 6.64166 27.6067 6.95333 27.35 7.21C27.0933 7.46667 26.7633 7.595 26.36 7.595H8.54V16.23H25.15C25.5533 16.23 25.8833 16.3583 26.14 16.615C26.3967 16.8717 26.525 17.2017 26.525 17.605V21.675C26.525 22.0417 26.3967 22.3533 26.14 22.61C25.8833 22.8667 25.5533 22.995 25.15 22.995H8.54V31.905H26.8C27.2033 31.905 27.5333 32.0333 27.79 32.29C28.0467 32.5467 28.175 32.8767 28.175 33.28V37.625C28.175 38.0283 28.0467 38.3583 27.79 38.615C27.5333 38.8717 27.2033 39 26.8 39H1.445ZM32.4586 39C32.1286 39 31.8536 38.89 31.6336 38.67C31.4136 38.4133 31.3036 38.1383 31.3036 37.845C31.3036 37.6617 31.3219 37.4967 31.3586 37.35L44.4486 1.985C44.5586 1.58167 44.7786 1.23333 45.1086 0.939998C45.4386 0.646664 45.8969 0.499997 46.4836 0.499997H53.5236C54.1102 0.499997 54.5686 0.646664 54.8986 0.939998C55.2286 1.23333 55.4486 1.58167 55.5586 1.985L68.6486 37.35C68.6852 37.4967 68.7036 37.6617 68.7036 37.845C68.7036 38.1383 68.5936 38.4133 68.3736 38.67C68.1536 38.89 67.8786 39 67.5486 39H61.8286C61.2786 39 60.8752 38.8717 60.6186 38.615C60.3619 38.3583 60.1969 38.12 60.1236 37.9L57.7586 31.74H42.2486L39.8836 37.9C39.8102 38.12 39.6452 38.3583 39.3886 38.615C39.1319 38.8717 38.7286 39 38.1786 39H32.4586ZM44.2836 24.645H55.6686L50.0036 8.805L44.2836 24.645Z" fill="#F76303"/>
<path d="M76.1599 39C75.8299 39 75.5549 38.89 75.3349 38.67C75.1149 38.4133 75.0049 38.12 75.0049 37.79C75.0049 37.6433 75.0416 37.4783 75.1149 37.295L88.0949 7.87H71.2099C70.8433 7.87 70.5133 7.74166 70.2199 7.485C69.9633 7.22833 69.8349 6.91666 69.8349 6.55V1.875C69.8349 1.47166 69.9633 1.14166 70.2199 0.884999C70.5133 0.628331 70.8433 0.499997 71.2099 0.499997H96.1249C96.5649 0.499997 96.8949 0.628331 97.1149 0.884999C97.3716 1.14166 97.4999 1.47166 97.4999 1.875V6C97.4999 6.55 97.4449 7.00833 97.3349 7.375C97.2616 7.705 97.1333 8.05333 96.9499 8.42L84.0249 37.68C83.9149 37.9 83.7133 38.175 83.4199 38.505C83.1633 38.835 82.7416 39 82.1549 39H76.1599Z" fill="#848484"/>
</svg>
